<?xml version="1.0" encoding="UTF-8"?>
<svg id="Capa_1" data-name="Capa 1" xmlns="http://www.w3.org/2000/svg" viewBox="0 0 534.68 218.65">
  <defs>
    <style>
      .cls-1 {
        fill: #ecdd63;
        stroke-width: 0px;
      }
    </style>
  </defs>
  <path class="cls-1" d="M178.69,152.92c8.12-12.58,12.85-27.54,12.85-43.59,0-17.25-5.46-33.24-14.72-46.36l5.81-5.16c4.19-3.72,6.62-9.08,6.66-14.69.04-5.52-2.26-10.8-6.3-14.49C162.04,9.48,134.92-.66,106.57.03,50.5,1.42,3.79,46.3.23,102.21c-1.95,30.52,8.49,59.59,29.38,81.86,20.62,21.97,49.67,34.58,79.71,34.58s55.57-10.99,76.1-30.93c3.75-3.64,5.84-8.55,5.88-13.82.04-5.35-2.02-10.38-5.8-14.16l-6.82-6.81ZM177.17,109.32c0,12.07-3.26,23.39-8.93,33.15l-6.11-6.11c-7.5-7.51-19.82-7.68-27.46-.39-6.88,6.57-15.88,10.18-25.34,10.18-10.45,0-20.45-4.48-27.45-12.31-7.08-7.92-10.33-18.13-9.14-28.77,1.82-16.31,14.9-29.85,31.1-32.2,10.25-1.49,20.32,1.21,28.34,7.61,7.62,6.07,18.36,5.84,25.54-.54l8.3-7.38c7.04,10.52,11.16,23.16,11.16,36.75ZM44.66,109.32c0-36.53,29.72-66.25,66.25-66.25,17.78,0,33.93,7.05,45.84,18.49l-8.6,7.64c-1.94,1.73-4.9,1.74-7.03.04-11.16-8.89-25.14-12.66-39.36-10.59-22.57,3.27-40.79,22.13-43.33,44.83-.35,3.1-.39,6.19-.18,9.25h-13.51c-.06-1.13-.09-2.27-.09-3.42ZM61.34,127.12c2.21,5.95,5.51,11.5,9.82,16.32,9.72,10.87,23.63,17.1,38.17,17.1,13.18,0,25.7-5.03,35.27-14.16,2.03-1.95,5.34-1.87,7.37.15l7.65,7.65c-12.12,13.14-29.46,21.4-48.7,21.4-30.37,0-56.01-20.54-63.81-48.46h14.23ZM106.93,14.41c.8-.02,1.6-.03,2.4-.03,23.73,0,46.36,8.78,63.97,24.86,1.42,1.3,1.62,2.92,1.62,3.78-.01,1.54-.68,3.02-1.83,4.04l-5.55,4.93c-14.57-14.39-34.57-23.29-56.62-23.29-36.14,0-66.8,23.9-77.01,56.73h-16.46C27.94,45.43,64.32,15.46,106.93,14.41ZM175.41,177.41c-17.84,17.33-41.31,26.87-66.09,26.87-26.08,0-51.32-10.95-69.23-30.04-18.15-19.34-27.21-44.6-25.52-71.11.07-1.12.18-2.22.29-3.33h15.99c-.37,3.13-.58,6.3-.58,9.53,0,44.46,36.17,80.63,80.63,80.63,23.21,0,44.14-9.87,58.87-25.61l5.56,5.56c1.04,1.04,1.61,2.42,1.6,3.89-.01,1.39-.55,2.67-1.52,3.61Z"/>
  <g>
    <path class="cls-1" d="M208.22,128.17v-34.81h7.03v34.81h-7.03Z"/>
    <path class="cls-1" d="M232.57,128.17v-34.81h6.84l14.25,23.25v-23.25h6.53v34.81h-7.05l-14.04-22.7v22.7h-6.53Z"/>
    <path class="cls-1" d="M278.17,128.17v-34.81h25.81v5.89h-18.79v7.72h17.48v5.86h-17.48v9.48h19.45v5.86h-26.48Z"/>
    <path class="cls-1" d="M321.21,128.17v-34.81h23.86v5.89h-16.84v8.24h14.53v5.89h-14.53v14.79h-7.03Z"/>
    <path class="cls-1" d="M360,110.97c0-3.54.53-6.52,1.59-8.93.79-1.77,1.87-3.36,3.24-4.77,1.37-1.41,2.87-2.45,4.5-3.13,2.17-.92,4.67-1.38,7.51-1.38,5.13,0,9.23,1.59,12.31,4.77,3.08,3.18,4.62,7.61,4.62,13.27s-1.52,10.02-4.58,13.19c-3.06,3.18-7.14,4.76-12.26,4.76s-9.29-1.58-12.35-4.74c-3.05-3.16-4.58-7.51-4.58-13.05ZM367.24,110.74c0,3.94.91,6.93,2.73,8.96,1.82,2.04,4.13,3.05,6.94,3.05s5.1-1.01,6.9-3.03c1.8-2.02,2.7-5.05,2.7-9.08s-.87-6.97-2.62-8.93c-1.75-1.96-4.07-2.94-6.97-2.94s-5.24.99-7.01,2.98c-1.77,1.99-2.66,4.98-2.66,8.99Z"/>
    <path class="cls-1" d="M409.83,128.17v-34.81h14.79c3.72,0,6.42.31,8.11.94,1.69.63,3.04,1.74,4.05,3.34,1.01,1.6,1.52,3.43,1.52,5.49,0,2.61-.77,4.77-2.3,6.47s-3.83,2.77-6.88,3.22c1.52.89,2.77,1.86,3.76,2.92.99,1.06,2.32,2.94,4,5.65l4.25,6.79h-8.41l-5.08-7.58c-1.81-2.71-3.04-4.41-3.71-5.12s-1.37-1.19-2.11-1.45c-.74-.26-1.92-.39-3.54-.39h-1.42v14.53h-7.03ZM416.86,108.08h5.2c3.37,0,5.48-.14,6.31-.43s1.5-.78,1.97-1.47c.48-.7.71-1.57.71-2.61,0-1.17-.31-2.12-.94-2.84s-1.51-1.18-2.65-1.37c-.57-.08-2.28-.12-5.13-.12h-5.49v8.83Z"/>
    <path class="cls-1" d="M455.43,93.35h7.03v18.85c0,2.99.09,4.93.26,5.82.3,1.42,1.02,2.57,2.15,3.43,1.13.86,2.68,1.3,4.64,1.3s3.5-.41,4.51-1.22c1.01-.81,1.62-1.82,1.83-3s.31-3.16.31-5.91v-19.26h7.03v18.28c0,4.18-.19,7.13-.57,8.86s-1.08,3.18-2.1,4.37c-1.02,1.19-2.39,2.13-4.1,2.84s-3.94,1.06-6.7,1.06c-3.33,0-5.84-.38-7.57-1.15-1.72-.77-3.07-1.77-4.07-2.99-.99-1.23-1.65-2.51-1.97-3.86-.46-1.99-.69-4.94-.69-8.83v-18.57Z"/>
    <path class="cls-1" d="M501.06,128.17v-34.81h10.52l6.31,23.75,6.25-23.75h10.54v34.81h-6.53v-27.4l-6.91,27.4h-6.77l-6.89-27.4v27.4h-6.53Z"/>
  </g>
</svg>